<?xml version="1.0" standalone="no"?><!DOCTYPE svg PUBLIC "-//W3C//DTD SVG 1.1//EN" "http://www.w3.org/Graphics/SVG/1.1/DTD/svg11.dtd"><svg t="1562929560876" class="icon" viewBox="0 0 1024 1024" version="1.1" xmlns="http://www.w3.org/2000/svg" p-id="1988" xmlns:xlink="http://www.w3.org/1999/xlink" width="200" height="200"><defs><style type="text/css"></style></defs><path d="M952.32459 74.713363l-3.202002-3.202002a240.150094 240.150094 0 0 0-341.5468 0L390.05317 288.393579a240.150094 240.150094 0 0 0 0 341.5468l3.202001 3.202002a188.277674 188.277674 0 0 0 26.25641 23.054409l78.982698-78.982698a182.727538 182.727538 0 0 1-25.829477-19.212007l-3.628935-2.988535a128.08005 128.08005 0 0 1 0-184.008338L686.131552 153.69606a128.08005 128.08005 0 0 1 184.008339 0l3.202001 3.202001a128.08005 128.08005 0 0 1 0 184.008339l-98.621639 98.835105a309.099854 309.099854 0 0 1 23.054409 131.495518l151.13446-151.134459a247.194497 247.194497 0 0 0 3.415468-345.389201zM630.203264 387.015218a187.21034 187.21034 0 0 0-26.256411-23.054409l-78.982697 82.184699a182.300605 182.300605 0 0 1 26.25641 19.638941l3.202001 3.202001a128.08005 128.08005 0 0 1 0 184.008338L337.540349 870.30394a128.08005 128.08005 0 0 1-184.008338 0l-3.202001-3.202001a128.08005 128.08005 0 0 1 0-184.008339l98.621638-98.621638a309.099854 309.099854 0 0 1-23.054409-131.495518L74.549313 604.110903a240.150094 240.150094 0 0 0 0 341.5468v6.617469a240.150094 240.150094 0 0 0 341.5468 0l217.309152-216.668751a240.150094 240.150094 0 0 0 0-341.5468z m0 0" p-id="1989"></path></svg>