<?xml version="1.0" standalone="no"?><!DOCTYPE svg PUBLIC "-//W3C//DTD SVG 1.1//EN" "http://www.w3.org/Graphics/SVG/1.1/DTD/svg11.dtd"><svg t="1567087590110" class="icon" viewBox="0 0 1024 1024" version="1.1" xmlns="http://www.w3.org/2000/svg" p-id="1442" xmlns:xlink="http://www.w3.org/1999/xlink" width="200" height="200"><defs><style type="text/css"></style></defs><path d="M628.996519 273.231767c-36.772109 0-61.741695 29.064627-61.741695 70.383331 0 37.898174 24.199121 64.968903 43.558135 64.968903-4.838695-27.070729 9.680213-75.796348 48.396831-75.796348 11.1774 0 19.789403-0.053622 29.037816 5.413017C688.249017 294.888068 659.825033 273.231767 628.996519 273.231767L628.996519 273.231767zM732.171218 993.292841c-0.122767 0.001411-0.242711 0.009878-0.365477 0.011289C732.370185 993.30413 732.46614 993.302719 732.171218 993.292841L732.171218 993.292841zM532.837857 78.593168c-130.481084 10.004768-233.582405 131.652305-233.582405 280.364926 0 80.433255 15.683074 136.680089 64.019226 187.923128 6.44736 5.508972 11.3679 9.736657 14.120975 20.734846 0 11.945044-8.643047 21.625257-19.303981 21.625257-5.013673-0.800099-11.823688-4.648195-17.504816-12.625199-53.465537-58.160299-72.214952-123.251969-72.214952-213.334392 0-87.989747 33.262679-165.980371 83.138352-225.369747 13.096509-15.594174 2.737553-32.880268-19.999658-22.806356C141.156129 196.415186 5.841994 402.603718 5.841994 644.407248c0 112.77589 29.492193 217.783621 80.206066 306.054179 20.864669 34.419789 31.392958 37.212375 64.985837 37.426863 78.492979 0.100189 351.496146 0.077611 382.341593 0 21.265424-1.203677 34.006333-20.68828 13.528309-65.426103-50.308884-133.691358 5.098339-240.344443 22.6977-262.0967 30.718448-48.889308 80.568721-78.53249 138.005121-78.53249 93.816219 0 174.229719 84.392829 174.229719 189.492282 0 105.102275-80.412088 173.25182-174.229719 173.25182-55.429801 0-82.277575-16.241873-82.277575-16.241873C605.065509 920.991812 601.132746 942.824501 601.132746 949.990117c0 8.976069 9.678802 16.241873 9.678802 16.241873 42.82718 25.009098 117.469241 26.914096 121.361081 27.058029 276.865374-6.992049 288.423774-325.757504 290.018328-346.489528C1024.506588 377.898009 832.124354 62.98065 532.837857 78.593168L532.837857 78.593168zM756.004862 960.818973c84.598851-9.680213 160.093221-65.752069 159.712222-189.493693-0.338666-110.24577-86.723982-230.342497-203.270357-227.390456-87.188237 2.208387-118.976306 22.243323-164.552328 81.210776-22.898078 35.075955-87.830292 124.145201-40.93206 293.897469 7.065426 23.228277-4.921951 24.645031-26.822374 25.534031-55.40299 0.2667-233.662838 1.014588-304.905536 0-33.592878-0.2159-46.141877-2.789764-58.077043-21.657712-50.004085-94.983207-64.552626-143.140149-72.595951-265.290041-12.987854-293.402169 205.405366-472.236339 261.3474-498.094925-41.121149 36.048209-72.595951 128.574674-72.595951 216.564422 0 90.082423 38.489429 180.057602 91.954966 238.219312 5.682539 7.974181 26.798385 20.428636 43.559546 16.241873 52.013505-6.187716 51.933072-76.592214 38.716618-86.623793-56.268001-52.419904-72.595951-103.64601-72.595951-184.079265 7.445015-161.476109 125.106167-245.233938 217.789265-243.63374 294.33209 14.506208 473.10276 358.78735 425.898317 600.963413C979.919754 710.832417 949.431317 955.8815 756.004862 960.818973L756.004862 960.818973zM785.044089 771.326691l-77.436058-86.626615-77.434647 86.626615 77.434647 86.625204L785.044089 771.326691 785.044089 771.326691zM707.608031 722.601072l43.559546 48.72703-43.559546 48.728441-43.558135-48.728441L707.608031 722.601072 707.608031 722.601072z" p-id="1443"></path></svg>