<?xml version="1.0" standalone="no"?><!DOCTYPE svg PUBLIC "-//W3C//DTD SVG 1.1//EN" "http://www.w3.org/Graphics/SVG/1.1/DTD/svg11.dtd"><svg t="1563504267621" class="icon" viewBox="0 0 1024 1024" version="1.1" xmlns="http://www.w3.org/2000/svg" p-id="3933" xmlns:xlink="http://www.w3.org/1999/xlink" width="200" height="200"><defs><style type="text/css"></style></defs><path d="M869.492532 127.431298l-169.638585 37.780464 49.097208 49.303916-260.556271 244.638743c-4.718465 4.711302-14.154371 4.711302-23.573905 0L184.265212 311.946708c-9.419534-4.725628-28.328185-11.030218-37.874609 6.897084-9.5454 17.929348 2.116197 30.482245 11.537778 35.207873l288.050461 154.009629c9.402137 4.711302 22.579251 10.700713 31.999808 10.700713 14.137998 0 20.187785-1.279133 38.691208-15.44476l264.127609-251.726162 50.983162 55.242162 48.869011-171.641195c1.655709-6.03546-0.316202-10.577916-11.157108-7.760754zM249.165338 523.369955h-0.973164c-15.731286 0-28.482705 11.559267-28.482705 25.819039v322.413084c0 14.260795 12.751419 25.819039 28.482705 25.819038h0.973164c15.72924 0 28.482705-11.561313 28.482705-25.819038v-322.413084c0-14.259772-12.753465-25.819039-28.482705-25.819039z m271.478018 81.162508h-0.962931c-15.563464 0-28.180829 11.561313-28.18083 25.820062v241.251599c0 14.260795 12.617365 25.819039 28.18083 25.819039h0.962931c15.563464 0 28.180829-11.56029 28.180829-25.819039V630.352525c0-14.259772-12.617365-25.820062-28.180829-25.820062z m265.312598-197.61373h-0.979304c-15.783475 0-28.584012 11.56029-28.584012 25.818015v438.866353c0 14.260795 12.799514 25.819039 28.584012 25.819039h0.979304c15.788591 0 28.586059-11.56029 28.586059-25.819039v-438.865329c0-14.259772-12.797467-25.819039-28.586059-25.819039z" p-id="3934"></path></svg>