<?xml version="1.0" standalone="no"?><!DOCTYPE svg PUBLIC "-//W3C//DTD SVG 1.1//EN" "http://www.w3.org/Graphics/SVG/1.1/DTD/svg11.dtd"><svg t="1566302194831" class="icon" viewBox="0 0 1024 1024" version="1.1" xmlns="http://www.w3.org/2000/svg" p-id="1437" xmlns:xlink="http://www.w3.org/1999/xlink" width="200" height="200"><defs><style type="text/css"></style></defs><path d="M512 32C345.40625 32 63.59375 61.0625 63.59375 170v684C63.59375 962.9375 345.40625 992 512 992s448.40625-29.0625 448.40625-138V170C960.40625 61.0625 678.59375 32 512 32zM132.5 456.40625c94.125 44.53125 264.28125 58.5 379.5 58.5 115.21875 0 285.5625-13.96875 379.59375-58.59375l0.09375 159.84375c-12.84375 25.6875-150.09375 71.25-379.78125 71.25-228.65625 0-365.625-45.1875-379.5-70.875V456.40625zM512 446c-228.65625 0-365.625-45.1875-379.5-70.875V249.5c94.125 44.53125 264.28125 58.5 379.5 58.5 115.21875 0 285.375-13.96875 379.5-58.5l0.09375 125.4375c-13.40625 25.6875-150.46875 71.0625-379.59375 71.0625z m0-345c223.03125 0 358.96875 42.9375 378.375 69-19.5 25.96875-155.34375 69-378.375 69S153.03125 196.0625 133.625 170c19.40625-26.0625 155.34375-69 378.375-69z m0 822c-230.25 0-367.6875-45.84375-379.5-69V697.90625c94.125 44.53125 264.28125 58.5 379.5 58.5 115.3125 0 285.75-13.96875 379.78125-58.6875l0.09375 153.84375c-12.28125 25.59375-149.625 71.4375-379.875 71.4375z" p-id="1438"></path></svg>