<?xml version="1.0" standalone="no"?><!DOCTYPE svg PUBLIC "-//W3C//DTD SVG 1.1//EN" "http://www.w3.org/Graphics/SVG/1.1/DTD/svg11.dtd"><svg t="1564105228754" class="icon" viewBox="0 0 1024 1024" version="1.1" xmlns="http://www.w3.org/2000/svg" p-id="1602" xmlns:xlink="http://www.w3.org/1999/xlink" width="200" height="200"><defs><style type="text/css"></style></defs><path d="M273.621333 366.826667H158.698667c-16.704 0-30.421333 13.525333-30.421334 30.016v234.901333c0 16.490667 13.717333 30.016 30.421334 30.016h114.922666l267.797334 192c14.954667 10.752 35.989333 0.170667 35.989333-18.133333V192.981333c0.085333-18.304-20.949333-28.885333-35.904-18.133333l-267.882667 192z m571.989334 104.981333h-177.322667c-23.701333 0-43.072 19.114667-43.072 42.496 0 23.36 19.370667 42.474667 43.072 42.474667h177.322667c23.701333 0 43.093333-19.114667 43.093333-42.474667 0-23.381333-19.392-42.496-43.093333-42.496z m-141.162667 192.981333a43.626667 43.626667 0 0 0-60.864 0 42.218667 42.218667 0 0 0 0 60.053334l125.376 123.669333c16.725333 16.490667 44.16 16.490667 60.864 0a42.218667 42.218667 0 0 0 0-60.032l-125.376-123.690667z m-5.162667-308.629333l125.376-123.669333a42.218667 42.218667 0 0 0 0-60.053334 43.626667 43.626667 0 0 0-60.842666 0l-125.376 123.605334a42.218667 42.218667 0 0 0 0 60.032c16.704 16.576 44.138667 16.576 60.842666 0.085333z" p-id="1603"></path></svg>