<?xml version="1.0" standalone="no"?><!DOCTYPE svg PUBLIC "-//W3C//DTD SVG 1.1//EN" "http://www.w3.org/Graphics/SVG/1.1/DTD/svg11.dtd"><svg t="1567087625071" class="icon" viewBox="0 0 1422 1024" version="1.1" xmlns="http://www.w3.org/2000/svg" p-id="2225" xmlns:xlink="http://www.w3.org/1999/xlink" width="277.734375" height="200"><defs><style type="text/css"></style></defs><path d="M76.5369081 489.96993359l69.98697686 36.06315821s31.78447822 18.18438925 48.59357783-15.89223956l173.28653086-362.15968183s16.35066914-30.86761816-10.3910792-45.53737734L281.60791807 65.15815449s-23.68554873-13.29446953-39.11935781 14.66975918C242.03013066 91.13585381 64.77053926 448.8640455 64.77053926 448.8640455s-11.30793925 29.33951836 11.76636884 41.10588809M1218.63879161 526.7971417l71.36226649-32.85414844s34.07662793-13.75289912 17.7259588-48.13514737L1129.55056631 86.09312393s-14.21132959-31.93728838-42.32836846-19.86529922L1010.97001162 103.20784297s-25.06083838 10.54388935-12.83603906 39.73059756C1006.69133252 150.27332011 1179.06100332 510.75209287 1179.06100332 510.75209287s16.04504883 26.89455849 39.57778828 16.04504883M246.00319033 525.57466133l23.53273858-49.96886748L352.35894482 580.12782911s53.789117-12.37760947 72.73755616 21.24058886c0 0 17.87876894 20.47653896 10.08545977 59.13746719 0 0 11.1551291 8.09892949 11.91917899 13.14165937 0 0 37.13282842-8.8629794 59.4430875 17.2675292 0 0 20.47653896 16.5034793 18.03157911 48.13514736 0 0 14.66975918 6.26520938 17.72595878 14.97537949 0 0 36.52158779-9.01578955 54.09473731 12.07198916 0 0 21.54620918 20.32372881 20.01810938 43.85646826l33.77100849 24.60240792s31.47885879 2.59777002 36.67439795 27.35298896l30.25637842 22.31025908s48.44076768 19.10124932 51.19134697-29.1867082l-113.84344423-86.64326631s-13.44727969-34.84067783 28.26984902-29.49232851l169.6190915 119.34460459s27.65860839 11.76636972 44.46770801-14.5169499c0 0 16.35066914-22.76868867-6.87645-47.2182873l-180.31579102-130.34692354s-15.89223955-36.52158779 25.06083838-33.61819835l213.93398936 151.43470225s30.40918857 12.07198916 43.24522851-10.54388936c0 0 17.2675292-22.61587852 0-45.99580781L755.47170459 555.2198s-14.21132959-41.25869825 30.10356827-30.714808l243.57912802 173.59215116s36.8272081 11.61355957 53.3306874-18.49000868c0 0 20.78215927-32.24290869-7.18206943-58.83184776L730.71648565 320.04522178s-64.02738691-30.71480888-102.22988468 33.46538818c0 0-6.72363984 104.3692251-122.55361347 123.31766426 0 0-79.15557568-6.1124001-60.665567-57.91498682 0 0 23.22711914-30.71480888 21.24058888-95.35343555 0 0 2.59777002-46.4542374 34.84067783-86.03202568h-124.08171328l27.35298808-56.53969716h187.34505117s77.01623614-43.7036581 135.0840331-39.57778828c0 0 75.64094648 4.12586982 95.9646753 15.58661923 0 0 100.24335527 32.09009854 145.16949287 24.60240879l167.78537139 347.64273281-26.58893906 60.66556699s49.05200742 50.42729707 12.83603994 111.70410469c-10.08545977 20.47653896-35.91034805 40.34183818-78.23871651 42.17555742 0 0 6.41801953 41.25869825-23.22711914 64.48581739 0 0-21.85182862 29.9507581-74.72408554 21.69901846 0 0 3.05619961 36.36877852-31.93728838 60.66556698 0 0-41.71712783 35.75753789-106.05013506-7.94611933 0 0-10.23826992 40.95307793-61.58242705 49.51043701 0 0-37.43844786 5.80677979-59.29027734-15.28099893 0 0-39.27216797 73.96003652-95.20062452 32.2429087 0 0-35.2991083-29.33951836-10.54389023-70.75102676 0 0-47.67671778 75.33532617-104.36922422 18.64281885 0 0-31.32604864-23.68554873-2.2921497-73.04317647 0 0-44.9261376 51.0385377-94.43657549 4.73711045 0 0-33.77100849-27.50579825-6.87645-78.84995625 0 0-45.99580781 54.24754747-99.4793045 2.44495987 0 0-22.46306924-20.78215927-9.47422001-66.77796709l51.80258759-70.75102588-70.29259629-89.24103633z" fill="" p-id="2226"></path></svg>